<svg xmlns="http://www.w3.org/2000/svg" width="1200" height="630" viewBox="0 0 1200 630">
  <defs>
    <radialGradient id="g1" cx="18%" cy="18%" r="45%"><stop offset="0" stop-color="#7db5ff" stop-opacity="0.35"/><stop offset="1" stop-color="#05060b" stop-opacity="0"/></radialGradient>
    <radialGradient id="g2" cx="84%" cy="20%" r="48%"><stop offset="0" stop-color="#b596ff" stop-opacity="0.30"/><stop offset="1" stop-color="#05060b" stop-opacity="0"/></radialGradient>
    <radialGradient id="g3" cx="50%" cy="100%" r="55%"><stop offset="0" stop-color="#75e3a8" stop-opacity="0.18"/><stop offset="1" stop-color="#05060b" stop-opacity="0"/></radialGradient>
    <linearGradient id="mark" x1="0" y1="0" x2="1" y2="1"><stop stop-color="#7db5ff"/><stop offset="1" stop-color="#b596ff"/></linearGradient>
    <pattern id="grid" width="54" height="54" patternUnits="userSpaceOnUse"><path d="M54 0H0V54" fill="none" stroke="rgba(255,255,255,0.06)" stroke-width="1"/></pattern>
  </defs>
  <rect width="1200" height="630" fill="#05060b"/>
  <rect width="1200" height="630" fill="url(#g1)"/>
  <rect width="1200" height="630" fill="url(#g2)"/>
  <rect width="1200" height="630" fill="url(#g3)"/>
  <rect width="1200" height="630" fill="url(#grid)" opacity="0.55"/>
  <rect x="70" y="70" width="1060" height="490" rx="42" fill="rgba(255,255,255,0.07)" stroke="rgba(255,255,255,0.16)"/>
  <rect x="95" y="95" width="100" height="100" rx="30" fill="url(#mark)"/>
  <text x="145" y="163" text-anchor="middle" font-family="Arial, sans-serif" font-weight="900" font-size="58" fill="#061018">学</text>
  <text x="220" y="165" font-family="Arial, sans-serif" font-weight="900" font-size="78" fill="#f7f8ff">Mode Atlas</text>
  <text x="224" y="230" font-family="Arial, sans-serif" font-size="34" fill="#b8c1d7">Study ecosystem for Japanese fluency</text>
  <g font-family="Arial, sans-serif" font-weight="900" fill="#f7f8ff">
    <rect x="82" y="282" width="156" height="156" rx="35" fill="rgba(117,227,168,0.16)" stroke="rgba(117,227,168,0.58)"/>
    <text x="160" y="355" text-anchor="middle" font-size="44">かな</text><text x="160" y="400" text-anchor="middle" font-size="22">Kana Trainer</text>
    <rect x="377" y="282" width="156" height="156" rx="35" fill="rgba(255,143,189,0.16)" stroke="rgba(255,143,189,0.58)"/>
    <text x="455" y="355" text-anchor="middle" font-size="44">語</text><text x="455" y="400" text-anchor="middle" font-size="22">Word Bank</text>
    <rect x="642" y="282" width="156" height="156" rx="35" fill="rgba(245,207,120,0.16)" stroke="rgba(245,207,120,0.58)"/>
    <text x="720" y="355" text-anchor="middle" font-size="44">読</text><text x="720" y="400" text-anchor="middle" font-size="22">Reading</text>
    <rect x="877" y="282" width="156" height="156" rx="35" fill="rgba(125,181,255,0.16)" stroke="rgba(125,181,255,0.58)"/>
    <text x="955" y="355" text-anchor="middle" font-size="44">書</text><text x="955" y="400" text-anchor="middle" font-size="22">Writing</text>
  </g>
</svg>
